<svg width="36" height="36" viewBox="0 0 36 36" fill="none" xmlns="http://www.w3.org/2000/svg">
<path d="M22.0898 15C21.8256 15 21.5925 14.8272 21.5157 14.5744L18.5741 4.89004C18.4017 4.32255 17.5983 4.32255 17.4259 4.89004L14.4843 14.5744C14.4075 14.8272 14.1744 15 13.9102 15H4.87376C4.28991 15 4.04999 15.7493 4.52524 16.0884L11.9172 21.3632C12.1278 21.5135 12.2183 21.7819 12.1418 22.0291L9.29844 31.2125C9.12583 31.77 9.77007 32.2208 10.2347 31.8677L17.6372 26.2408C17.8516 26.0778 18.1484 26.0777 18.363 26.2405L25.7814 31.8703C26.2461 32.223 26.8898 31.7722 26.7173 31.2149L23.8731 22.0287C23.7966 21.7817 23.887 21.5135 24.0974 21.3631L31.4776 16.0881C31.9524 15.7488 31.7123 15 31.1287 15H22.0898Z" fill="#F87C09"/>
</svg>
